<svg xmlns="http://www.w3.org/2000/svg" xmlns:xlink="http://www.w3.org/1999/xlink" viewBox="0,0,256,256" width="48px" height="48px" fill-rule="nonzero"><g fill="none" fill-rule="nonzero" stroke="none" stroke-width="none" stroke-linecap="none" stroke-linejoin="none" stroke-miterlimit="10" stroke-dasharray="" stroke-dashoffset="0" font-family="none" font-weight="none" font-size="none" text-anchor="none" style="mix-blend-mode: normal"><g transform="scale(5.33333,5.33333)"><path d="M28,9.5c-10.2,0 -18.5,8.3 -18.5,18.5c0,3.3 0.9,6.3 2.3,9l-2.3,8.2c-0.2,0.8 0.5,1.4 1.2,1.2l8.2,-2.3c2.7,1.5 5.7,2.3 9,2.3c10.2,0 18.5,-8.3 18.5,-18.5c0.1,-10.1 -8.2,-18.4 -18.4,-18.4z" fill="#3571ff" stroke="none" stroke-width="1" stroke-linecap="butt" stroke-linejoin="miter"></path><path d="M42.2,20.5c-1.7,-8.5 -9.2,-15 -18.2,-15c-10.2,0 -18.5,8.3 -18.5,18.5c0,1 0.1,1.9 0.2,2.9" fill="none" stroke="#18193f" stroke-width="3" stroke-linecap="round" stroke-linejoin="round"></path><path d="M7.8,33l-2.3,8.2c-0.2,0.8 0.5,1.5 1.3,1.3l8.2,-2.3c2.7,1.5 5.7,2.3 9,2.3c8.7,0 16,-6 18,-14.1" fill="none" stroke="#18193f" stroke-width="3" stroke-linecap="round" stroke-linejoin="round"></path></g></g></svg>